# AST/ASF file generated using VICON BodyLanguage
# -----------------------------------------------
:version 1.10
:name VICON
:units
  mass 1.0
  length 0.45
  angle deg
:documentation
   .ast/.asf automatically generated from VICON data using
   VICON BodyBuilder and BodyLanguage model FoxedUp or BRILLIANT.MOD
:root
   order TX TY TZ RX RY RZ
   axis XYZ
   position 0 0 0  
   orientation 0 0 0 
:bonedata
  begin
     id 1 
     name lhipjoint
     direction 0.567725 -0.736092 0.368589 
     length 2.42353 
     axis 0 0 0  XYZ
  end
  begin
     id 2 
     name lfemur
     direction 0.34202 -0.939693 0  
     length 7.24894  
     axis 0 0 20  XYZ
    dof rx ry rz
    limits (-160.0 20.0)
           (-70.0 70.0)
           (-60.0 70.0)
  end
  begin
     id 3 
     name ltibia
     direction 0.34202 -0.939693 0   
     length 7.6997   
     axis 0 0 20   XYZ
    dof rx
    limits (-10.0 170.0)
  end
  begin
     id 4 
     name lfoot
     direction 0.100767 -0.276854 0.955614   
     length 2.37556   
     axis -90 7.62852e-016 20   XYZ
    dof rx rz
    limits (-45.0 90.0)
           (-70.0 20.0)
  end
  begin
     id 5 
     name ltoes
     direction 1.53592e-011 -4.21894e-011 1   
     length 1.18363   
     axis -90 7.62852e-016 20   XYZ
    dof rx
    limits (-90.0 20.0)
  end
  begin
     id 6 
     name rhipjoint
     direction -0.556459 -0.742938 0.372017   
     length 2.4012  
     axis 0 0 0  XYZ 
  end
  begin
     id 7 
     name rfemur
     direction -0.34202 -0.939693 0   
     length 7.5119   
     axis 0 0 -20   XYZ
    dof rx ry rz
    limits (-160.0 20.0)
           (-70.0 70.0)
           (-70.0 60.0)
  end
  begin
     id 8 
     name rtibia
     direction -0.34202 -0.939693 0   
     length 7.50155   
     axis 0 0 -20   XYZ
    dof rx
    limits (-10.0 170.0)
 end
 begin
     id 9 
     name rfoot
     direction -0.118427 -0.325376 0.938139   
     length 2.32487  
     axis -90 -7.62852e-016 -20   XYZ
    dof rx rz
    limits (-45.0 90.0)
           (-20.0 70.0)
  end
  begin
     id 10 
     name rtoes
     direction -1.53525e-011 -4.21868e-011 1   
     length 1.15233   
     axis -90 -7.62852e-016 -20   XYZ
    dof rx
    limits (-90.0 20.0)
  end
  begin
     id 11 
     name lowerback
     direction 0.0287568 0.999577 -0.00434502   
     length 2.15243   
     axis 0 0 0   XYZ
    dof rx ry rz
    limits (-20.0 45.0)
           (-30.0 30.0)
           (-30.0 30.0)
  end
  begin
     id 12 
     name upperback
     direction 0.0294009 0.99956 0.00404628   
     length 2.15427   
     axis 0 0 0   XYZ
    dof rx ry rz
    limits (-20.0 45.0)
           (-30.0 30.0)
           (-30.0 30.0)
  end
  begin
     id 13 
     name thorax
     direction 0.0151014 0.999868 0.0059419   
     length 2.14898   
     axis 0 0 0   XYZ
    dof rx ry rz
    limits (-20.0 45.0)
           (-30.0 30.0)
           (-30.0 30.0)
  end
  begin
     id 14 
     name lowerneck
     direction -0.0249197 0.989906 0.139515   
     length 1.6861   
     axis 0 0 0   XYZ
    dof rx ry rz
    limits (-20.0 45.0)
           (-30.0 30.0)
           (-30.0 30.0)
  end
  begin
     id 15 
     name upperneck
     direction 0.0438463 0.988795 -0.142693   
     length 1.71276   
     axis 0 0 0   XYZ
    dof rx ry rz
    limits (-20.0 45.0)
           (-30.0 30.0)
           (-30.0 30.0)
  end
  begin
     id 16
     name head
     direction 0.0148499 0.997845 -0.0639186  
     length 1.7209  
     axis 0 0 0   XYZ
    dof rx ry rz
    limits (-20.0 45.0)
           (-30.0 30.0)
           (-30.0 30.0)
  end
  begin
     id 17 
     name lclavicle
     direction 0.940298 0.323464 -0.105876  
     length 3.9048  
     axis 0 0 0   XYZ
    dof ry rz
    limits (-20.0 10.0)
           (0.0 20.0)
  end
  begin
     id 18 
     name lhumerus
     direction 1 -4.48954e-011 -4.9675e-028   
     length 4.6851   
     axis 180 -30 -90   XYZ
    dof rx ry rz
    limits (-60.0 90.0)
           (-90.0 90.0)
           (-90.0 90.0)
  end
  begin
     id 19
     name lradius
     direction 1 -4.48992e-011 -1.03359e-026   
     length 3.39626   
     axis 180 -30 -90   XYZ
    dof rx
    limits (-10.0 170.0)
  end
  begin
     id 20
     name lwrist
     direction 1 -4.48906e-011 -1.67336e-026   
     length 1.69813   
     axis 9.90442e-015 90 90   XYZ
    dof ry
    limits (-180.0 0.0)
 end
  begin
     id 21 
     name lhand
     direction 1 -4.49006e-011 -3.34673e-026   
     length 0.486078   
     axis 2.1355e-014 90 90   XYZ
    dof rx rz
    limits (-90.0 90.0)
           (-45.0 45.0)
  end
  begin
     id 22 
     name lfingers
     direction 1 -4.48992e-011 -6.69345e-026   
     length 0.391889   
     axis 4.27099e-014 90 90   XYZ
    dof rx
    limits (0.0 90.0)
  end
  begin
     id 23
     name lthumb
     direction 0.707107 -6.34926e-011 0.707107   
     length 0.562676   
     axis -90 45 2.85299e-015   XYZ
    dof rx rz
    limits (-45.0 45.0)
           (-45.0 45.0)
  end
  begin
     id 24 
     name rclavicle
     direction -0.882459 0.414895 -0.221648   
     length 3.44646  
     axis 0 0 0   XYZ 
    dof ry rz
    limits (-10.0 20.0)
           (-20.0 0.0)
  end
  begin
     id 25 
     name rhumerus
     direction -1 -4.48962e-011 -2.37984e-027  
     length 5.55576   
     axis 180 30 90   XYZ
    dof rx ry rz
    limits (-90.0 60.0)
           (-90.0 90.0)
           (-90.0 90.0)
  end
  begin
     id 26 
     name rradius
     direction -1 -4.48982e-011 -6.86791e-027   
     length 3.32774   
     axis 180 30 90   XYZ
    dof rx
    limits (-10.0 170.0)
  end
  begin
     id 27 
     name rwrist
     direction -1 -4.48961e-011 -1.67336e-026   
     length 1.66387   
     axis 9.90442e-015 -90 -90   XYZ
    dof ry
    limits (-180.0 0.0)
  end
  begin
     id 28
     name rhand
     direction -1 -4.4897e-011 -3.34673e-026   
     length 0.507628   
     axis 2.1355e-014 -90 -90   XYZ
    dof rx rz
    limits (-90.0 90.0)
           (-45.0 45.0)
  end
  begin
     id 29
     name rfingers
     direction -1 -4.48854e-011 -6.69345e-026   
     length 0.409263   
     axis 4.27099e-014 -90 -90   XYZ
    dof rx
    limits (0.0 90.0)
  end
  begin
     id 30
     name rthumb
     direction -0.707107 -6.34913e-011 0.707107   
     length 0.587622   
     axis -90 -45 -2.85299e-015   XYZ
    dof rx rz
    limits (-45.0 45.0)
           (-45.0 45.0)
  end
:hierarchy
  begin
    root lhipjoint rhipjoint lowerback
    lhipjoint lfemur
    lfemur ltibia
    ltibia lfoot
    lfoot ltoes
    rhipjoint rfemur
    rfemur rtibia
    rtibia rfoot
    rfoot rtoes
    lowerback upperback
    upperback thorax
    thorax lowerneck lclavicle rclavicle
    lowerneck upperneck
    upperneck head
    lclavicle lhumerus
    lhumerus lradius
    lradius lwrist
    lwrist lhand lthumb
    lhand lfingers
    rclavicle rhumerus
    rhumerus rradius
    rradius rwrist
    rwrist rhand rthumb
    rhand rfingers
  end

#!OML:ASF E:\motion texture\Top Level 1\Subject 1\Session 1\male.ASF
:FULLY-SPECIFIED
:DEGREES
16
root 27.7107 17.7507 5.86034 71.8302 -82.6644 -65.8816
lowerback -0.799218 -1.24485 4.38806
upperback 0.313471 -1.91971 5.93542
thorax 0.838751 -1.025 3.62915
lowerneck -16.6855 -2.46561 -4.21139
upperneck 16.9043 -3.48284 5.37125
head 8.1615 -1.41337 2.0701
rclavicle -6.95746e-016 1.27222e-014
rhumerus -46.3483 -41.5231 -53.3014
rradius 13.2295
rwrist 38.1862
rhand -9.20269 -29.1087
rfingers 7.12502
rthumb 16.7513 -58.406
lclavicle -6.95746e-016 1.27222e-014
lhumerus -59.5326 46.6216 43.5687
lradius 10.2307
lwrist -89.9577
lhand 14.1041 16.1641
lfingers 7.12502
lthumb 39.0077 41.682
rfemur -20.1489 5.66155 29.3038
rtibia 21.7045
rfoot -4.4665 -5.38651
rtoes 20.7958
lfemur -13.7801 0.526409 -7.24015
ltibia 57.0316
lfoot 12.8222 -11.6508
ltoes -9.99898
17
root 27.5667 17.7664 5.82776 71.5111 -82.4748 -65.7364
lowerback -0.758391 -1.03319 4.46468
upperback 0.367451 -1.63797 5.9168
thorax 0.860001 -0.882979 3.57134
lowerneck -16.6346 -2.5438 -4.36327
upperneck 16.5493 -3.50815 5.27167
head 8.03608 -1.44472 2.05726
rclavicle 8.05078e-015 -3.26007e-014
rhumerus -46.6723 -39.741 -54.3243
rradius 13.386
rwrist 37.4432
rhand -8.45398 -27.083
rfingers 7.12502
rthumb 17.472 -56.3178
lclavicle 8.05078e-015 -3.26007e-014
lhumerus -58.488 45.2152 44.5683
lradius 10.4308
lwrist -87.0243
lhand 14.1605 16.0261
lfingers 7.12502
lthumb 39.0609 41.5287
rfemur -19.1244 5.72058 29.7251
rtibia 21.1925
rfoot -4.74956 -5.5171
rtoes 20.7823
lfemur -14.8898 0.973653 -6.83662
ltibia 58.6785
lfoot 11.7409 -11.3987
ltoes -10.0774
18
root 27.424 17.7836 5.79602 70.961 -82.3443 -65.3378
lowerback -0.751819 -0.842628 4.47231
upperback 0.419094 -1.38474 5.88077
thorax 0.900835 -0.754759 3.53281
lowerneck -16.5783 -2.60071 -4.50722
upperneck 16.2173 -3.50699 5.15882
head 7.91603 -1.4641 2.04225
rclavicle 1.49089e-014 -6.20208e-014
rhumerus -46.9693 -38.1262 -55.2941
rradius 13.4925
rwrist 36.9102
rhand -7.70586 -25.046
rfingers 7.12502
rthumb 18.1918 -54.2153
lclavicle 1.49089e-014 -6.20208e-014
lhumerus -57.4313 43.7486 45.6465
lradius 10.6815
lwrist -83.8404
lhand 13.8134 15.9076
lfingers 7.12502
lthumb 38.7336 41.5035
rfemur -18.122 5.75591 30.0582
rtibia 20.66
rfoot -5.01113 -5.64666
rtoes 20.7558
lfemur -16.0149 1.4223 -6.54071
ltibia 60.1928
lfoot 10.5841 -11.0473
ltoes -10.0512
19
root 27.2831 17.8018 5.76539 70.2356 -82.2548 -64.7455
lowerback -0.766043 -0.672852 4.43543
upperback 0.464634 -1.15882 5.8309
thorax 0.948685 -0.639924 3.50426
lowerneck -16.5157 -2.63577 -4.64334
upperneck 15.9121 -3.4793 5.03472
head 7.80246 -1.47125 2.02571
rclavicle 4.77083e-015 3.49861e-014
rhumerus -47.2085 -36.6338 -56.2553
rradius 13.5678
rwrist 36.4685
rhand -7.00167 -23.2009
rfingers 7.12502
rthumb 18.8692 -52.3056
lclavicle 4.77083e-015 3.49861e-014
lhumerus -56.4086 42.2291 46.763
lradius 10.9917
lwrist -80.4214
lhand 13.1495 15.8444
lfingers 7.12502
lthumb 38.107 41.6144
rfemur -17.1519 5.75953 30.323
rtibia 20.1328
rfoot -5.27027 -5.76156
rtoes 20.7587
lfemur -17.1513 1.86059 -6.33339
ltibia 61.5665
lfoot 9.46423 -10.6014
ltoes -9.84914
20
root 27.144 17.8202 5.73619 69.3825 -82.1848 -64.0092
lowerback -0.812723 -0.523426 4.38171
upperback 0.515897 -0.962289 5.77122
thorax 1.0217 -0.539413 3.47431
lowerneck -16.4618 -2.65187 -4.76906
upperneck 15.6315 -3.42882 4.90009
head 7.69734 -1.46742 2.00684
rclavicle 6.55989e-015 3.65764e-014
rhumerus -47.3616 -35.2513 -57.2347
rradius 13.6358
rwrist 36.0283
rhand -6.33698 -21.6843
rfingers 7.12502
rthumb 19.5084 -50.7256
lclavicle 6.55989e-015 3.65764e-014
lhumerus -55.4538 40.7055 47.8636
lradius 11.363
lwrist -76.8229
lhand 12.2103 15.8223
lfingers 7.12502
lthumb 37.2196 41.8296
rfemur -16.2183 5.70996 30.5424
rtibia 19.6188
rfoot -5.51897 -5.8328
rtoes 20.7537
lfemur -18.2993 2.27731 -6.19114
ltibia 62.7991
lfoot 8.37292 -10.0763
ltoes -9.75478
21
root 27.0068 17.8382 5.70854 68.447 -82.1173 -63.1793
lowerback -0.871998 -0.393455 4.33061
upperback 0.562147 -0.792009 5.70598
thorax 1.09731 -0.451928 3.43701
lowerneck -16.4018 -2.64948 -4.88426
upperneck 15.377 -3.35694 4.75456
head 7.5986 -1.45361 1.98536
rclavicle -3.47873e-015 6.44062e-014
rhumerus -47.4387 -33.9441 -58.2339
rradius 13.7146
rwrist 35.5015
rhand -5.68853 -20.5498
rfingers 7.12502
rthumb 20.1317 -49.5267
lclavicle -3.47873e-015 6.44062e-014
lhumerus -54.6102 39.1912 48.9021
lradius 11.7948
lwrist -73.0921
lhand 11.0674 15.8283
lfingers 7.12502
lthumb 36.138 42.1108
rfemur -15.3177 5.61617 30.7373
rtibia 19.1232
rfoot -5.76316 -5.86614
rtoes 20.7445
lfemur -19.4502 2.66538 -6.09643
ltibia 63.8829
lfoot 7.36188 -9.49164
ltoes -9.78087
22
root 26.8716 17.8549 5.68246 67.475 -82.0306 -62.3067
lowerback -0.923747 -0.281857 4.30694
upperback 0.598917 -0.645348 5.63937
thorax 1.1594 -0.376281 3.38302
lowerneck -16.3541 -2.63557 -4.97776
upperneck 15.1631 -3.27366 4.58836
head 7.51432 -1.43458 1.95492
rclavicle 6.55989e-015 -5.40694e-014
rhumerus -47.4613 -32.7109 -59.2341
rradius 13.8216
rwrist 34.869
rhand -5.0275 -19.7433
rfingers 7.12502
rthumb 20.767 -48.652
lclavicle 6.55989e-015 -5.40694e-014
lhumerus -53.8804 37.704 49.8648
lradius 12.2837
lwrist -69.2572
lhand 9.81885 15.8853
lfingers 7.12502
lthumb 34.9545 42.452
rfemur -14.4369 5.49534 30.9356
rtibia 18.6322
rfoot -5.99995 -5.8814
rtoes 20.73
lfemur -20.5981 3.01475 -6.02085
ltibia 64.8228
lfoot 6.4419 -8.87474
ltoes -9.87572
23
root 26.7387 17.87 5.65789 66.5048 -81.9175 -61.4296
lowerback -0.960449 -0.187641 4.31857
upperback 0.617826 -0.52007 5.57236
thorax 1.19517 -0.311424 3.30883
lowerneck -16.2948 -2.60923 -5.0558
upperneck 14.9826 -3.17882 4.41131
head 7.43824 -1.41019 1.91993
rclavicle 3.57812e-015 4.29375e-014
rhumerus -47.4606 -31.5531 -60.2036
rradius 13.9563
rwrist 34.1549
rhand -4.37129 -19.2017
rfingers 7.12502
rthumb 21.3974 -48.0401
lclavicle 3.57812e-015 4.29375e-014
lhumerus -53.33 36.3154 50.6401
lradius 12.8084
lwrist -65.4829
lhand 8.4137 15.9498
lfingers 7.12502
lthumb 33.6203 42.817
rfemur -13.5772 5.35982 31.1483
rtibia 18.1462
rfoot -6.23102 -5.89262
rtoes 20.7213
lfemur -21.7437 3.32648 -5.95523
ltibia 65.6226
lfoot 5.62222 -8.26296
ltoes -9.96619
24
root 26.6078 17.883 5.63483 65.5633 -81.7773 -60.5754
lowerback -0.991326 -0.108102 4.36834
upperback 0.628489 -0.414125 5.50329
thorax 1.21979 -0.256134 3.21096
lowerneck -16.239 -2.57339 -5.11008
upperneck 14.8264 -3.07622 4.21968
head 7.37002 -1.38186 1.8772
rclavicle 5.76476e-015 3.33958e-014
rhumerus -47.4388 -30.5092 -61.1123
rradius 14.1125
rwrist 33.4089
rhand -3.70742 -18.8675
rfingers 7.12502
rthumb 22.0349 -47.6322
lclavicle 5.76476e-015 3.33958e-014
lhumerus -52.9579 35.1064 51.1724
lradius 13.3454
lwrist -61.9152
lhand 6.8692 15.9834
lfingers 7.12502
lthumb 32.1512 43.1589
rfemur -12.7363 5.20209 31.3794
rtibia 17.6625
rfoot -6.45604 -5.89658
rtoes 20.7162
lfemur -22.8795 3.59489 -5.89414
ltibia 66.2842
lfoot 4.86151 -7.69718
ltoes -10.0625
25
root 26.4785 17.8937 5.61351 64.77 -81.6214 -59.867
lowerback -1.00247 -0.0355773 4.45995
upperback 0.623589 -0.315472 5.42721
thorax 1.21766 -0.204429 3.08238
lowerneck -16.1883 -2.52952 -5.13582
upperneck 14.7046 -2.9692 4.0138
head 7.31334 -1.35101 1.82571
rclavicle -7.15625e-015 1.03368e-014
rhumerus -47.4225 -29.5813 -61.9373
rradius 14.2843
rwrist 32.6653
rhand -3.04791 -18.6788
rfingers 7.12502
rthumb 22.668 -47.3675
lclavicle -7.15625e-015 1.03368e-014
lhumerus -52.7473 34.0667 51.4716
lradius 13.8847
lwrist -58.5933
lhand 5.19736 16.1069
lfingers 7.12502
lthumb 30.5582 43.5916
rfemur -11.9106 5.04084 31.6272
rtibia 17.1852
rfoot -6.67646 -5.89419
rtoes 20.7185
lfemur -23.9882 3.83126 -5.8379
ltibia 66.7995
lfoot 4.12039 -7.17869
ltoes -10.064
26
root 26.3506 17.9022 5.59359 64.1274 -81.4579 -59.3047
lowerback -1.03105 0.0331991 4.58054
upperback 0.626348 -0.224308 5.34411
thorax 1.23388 -0.156033 2.93029
lowerneck -16.1444 -2.48195 -5.14357
upperneck 14.5891 -2.86231 3.80841
head 7.25993 -1.31893 1.77143
rclavicle 1.39149e-014 1.43125e-014
rhumerus -47.3843 -28.8079 -62.6652
rradius 14.4556
rwrist 31.9884
rhand -2.41258 -18.5782
rfingers 7.12502
rthumb 23.2776 -47.1912
lclavicle 1.39149e-014 1.43125e-014
lhumerus -52.6408 33.2333 51.5634
lradius 14.4061
lwrist -55.5689
lhand 3.39592 16.2924
lfingers 7.12502
lthumb 28.8388 44.0838
rfemur -11.099 4.8908 31.8875
rtibia 16.7101
rfoot -6.89398 -5.89639
rtoes 20.7393
lfemur -25.066 4.04124 -5.78875
ltibia 67.1616
lfoot 3.30497 -6.72418
ltoes -10.1414
